<svg width="251" height="182" viewBox="0 0 251 182" fill="none" xmlns="http://www.w3.org/2000/svg">
<path d="M0 10C0 4.47716 4.47715 0 10 0H241C246.523 0 251 4.47715 251 10V136.365C251 140.794 248.087 144.696 243.84 145.954L128.34 180.168C126.487 180.718 124.513 180.718 122.66 180.168L7.15968 145.954C2.9132 144.696 0 140.794 0 136.365V10Z" fill="#113089"/>
<path d="M0 10C0 4.47715 4.47715 0 10 0H241C246.523 0 251 4.47715 251 10V72.4038H0V10Z" fill="#393E46"/>
<rect y="62.75" width="251" height="19.3077" fill="#EEEEEE"/>
</svg>
