<svg width="300" height="230" viewBox="0 0 300 230" fill="none" xmlns="http://www.w3.org/2000/svg">
<rect width="300" height="230" fill="white"/>
<path d="M25 29C25 26.2386 27.2386 24 30 24H271C273.761 24 276 26.2386 276 29V164.099C276 166.314 274.543 168.264 272.42 168.893L151.92 204.589C150.993 204.864 150.007 204.864 149.08 204.589L28.5798 168.893C26.4566 168.264 25 166.314 25 164.099V29Z" fill="#00ADB5"/>
<path d="M25 29C25 26.2386 27.2386 24 30 24H271C273.761 24 276 26.2386 276 29V96.4038H25V29Z" fill="#393E46"/>
<rect x="25" y="86.75" width="251" height="19.3077" fill="#EEEEEE"/>
<path d="M88.6621 62.7031H73.8184L71.4746 67H68.7403L79.6778 48.25H82.8028L93.7403 67H91.0059L88.6621 62.7031ZM87.4903 60.75L81.2403 49.8125L74.9903 60.75H87.4903ZM118.752 48.25V57.625C118.752 58.7318 118.736 59.7409 118.704 60.6523C118.679 61.5638 118.586 62.3817 118.423 63.106C118.268 63.8302 118.02 64.4609 117.678 64.998C117.336 65.5352 116.848 65.9827 116.213 66.3408C115.579 66.6908 114.769 66.9512 113.784 67.1221C112.808 67.3011 111.603 67.3906 110.171 67.3906H104.678C103.245 67.3906 102.037 67.3011 101.052 67.1221C100.076 66.9512 99.2701 66.6908 98.6353 66.3408C98.0005 65.9827 97.5082 65.5352 97.1582 64.998C96.8164 64.4609 96.5642 63.8302 96.4014 63.106C96.2468 62.3817 96.1573 61.5638 96.1328 60.6523C96.1084 59.7409 96.0962 58.7318 96.0962 57.625V48.25H98.44V57.625C98.44 58.7969 98.4481 59.806 98.4644 60.6523C98.4888 61.4906 98.558 62.1986 98.6719 62.7764C98.7858 63.3542 98.9649 63.818 99.209 64.168C99.4613 64.5179 99.8194 64.7865 100.283 64.9736C100.747 65.1608 101.333 65.2869 102.041 65.3521C102.757 65.409 103.636 65.4375 104.678 65.4375H110.171C111.204 65.4375 112.079 65.409 112.795 65.3521C113.512 65.2869 114.098 65.1608 114.553 64.9736C115.017 64.7865 115.375 64.5179 115.627 64.168C115.88 63.818 116.063 63.3542 116.177 62.7764C116.299 62.1986 116.368 61.4906 116.384 60.6523C116.401 59.806 116.409 58.7969 116.409 57.625L116.397 48.25H118.752ZM142.19 54.1094C142.19 53.1328 142.084 52.3597 141.873 51.79C141.661 51.2204 141.311 50.7891 140.823 50.4961C140.335 50.2031 139.692 50.016 138.894 49.9346C138.105 49.8532 137.124 49.8125 135.952 49.8125H130.471C129.43 49.8125 128.551 49.8451 127.835 49.9102C127.126 49.9671 126.541 50.0892 126.077 50.2764C125.613 50.4635 125.255 50.7321 125.002 51.082C124.75 51.432 124.567 51.8958 124.453 52.4736C124.339 53.0514 124.274 53.7635 124.258 54.6099C124.242 55.4481 124.233 56.4531 124.233 57.625C124.233 58.7969 124.242 59.806 124.258 60.6523C124.282 61.4906 124.351 62.1986 124.465 62.7764C124.579 63.3542 124.758 63.818 125.002 64.168C125.255 64.5179 125.613 64.7865 126.077 64.9736C126.541 65.1608 127.126 65.2869 127.835 65.3521C128.551 65.409 129.43 65.4375 130.471 65.4375H135.952C136.864 65.4375 137.649 65.4131 138.308 65.3643C138.967 65.3154 139.529 65.2259 139.993 65.0957C140.457 64.9655 140.831 64.7865 141.116 64.5586C141.401 64.3307 141.62 64.0459 141.775 63.7041C141.938 63.3542 142.048 62.9391 142.105 62.459C142.161 61.9707 142.19 61.401 142.19 60.75H144.534C144.534 61.5312 144.485 62.2393 144.387 62.874C144.29 63.5007 144.115 64.0622 143.862 64.5586C143.618 65.0469 143.289 65.4701 142.874 65.8281C142.459 66.1862 141.934 66.4832 141.299 66.7192C140.664 66.9471 139.907 67.1139 139.028 67.2197C138.149 67.3337 137.124 67.3906 135.952 67.3906H130.471C129.039 67.3906 127.83 67.3011 126.846 67.1221C125.869 66.9512 125.064 66.6908 124.429 66.3408C123.794 65.9827 123.302 65.5352 122.952 64.998C122.61 64.4609 122.358 63.8302 122.195 63.106C122.04 62.3817 121.951 61.5638 121.926 60.6523C121.902 59.7409 121.89 58.7318 121.89 57.625C121.89 56.5182 121.902 55.5091 121.926 54.5977C121.951 53.6862 122.04 52.8683 122.195 52.144C122.358 51.4198 122.61 50.7891 122.952 50.252C123.302 49.7148 123.794 49.2713 124.429 48.9214C125.064 48.5633 125.869 48.2988 126.846 48.1279C127.83 47.9489 129.039 47.8594 130.471 47.8594H135.952C137.124 47.8594 138.149 47.9163 139.028 48.0303C139.907 48.1361 140.664 48.3029 141.299 48.5308C141.934 48.7505 142.459 49.0312 142.874 49.373C143.289 49.7148 143.618 50.1177 143.862 50.5815C144.115 51.0454 144.29 51.5703 144.387 52.1562C144.485 52.7422 144.534 53.3932 144.534 54.1094H142.19ZM168.765 48.25V50.2031H159.39V67H157.046V50.2031H147.671V48.25H168.765ZM172.671 48.25H175.015V67H172.671V48.25ZM194.558 47.8594C195.99 47.8594 197.195 47.9489 198.171 48.1279C199.156 48.2988 199.966 48.5633 200.601 48.9214C201.235 49.2713 201.724 49.7148 202.065 50.252C202.407 50.7891 202.655 51.4198 202.81 52.144C202.973 52.8683 203.066 53.6862 203.091 54.5977C203.123 55.5091 203.14 56.5182 203.14 57.625C203.14 58.7318 203.123 59.7409 203.091 60.6523C203.066 61.5638 202.973 62.3817 202.81 63.106C202.655 63.8302 202.407 64.4609 202.065 64.998C201.724 65.5352 201.235 65.9827 200.601 66.3408C199.966 66.6908 199.156 66.9512 198.171 67.1221C197.195 67.3011 195.99 67.3906 194.558 67.3906H187.502C186.07 67.3906 184.862 67.3011 183.877 67.1221C182.9 66.9512 182.095 66.6908 181.46 66.3408C180.825 65.9827 180.333 65.5352 179.983 64.998C179.641 64.4609 179.389 63.8302 179.226 63.106C179.071 62.3817 178.982 61.5638 178.958 60.6523C178.933 59.7409 178.921 58.7318 178.921 57.625C178.921 56.5182 178.933 55.5091 178.958 54.5977C178.982 53.6862 179.071 52.8683 179.226 52.144C179.389 51.4198 179.641 50.7891 179.983 50.252C180.333 49.7148 180.825 49.2713 181.46 48.9214C182.095 48.5633 182.9 48.2988 183.877 48.1279C184.862 47.9489 186.07 47.8594 187.502 47.8594H194.558ZM194.558 65.4375C195.592 65.4375 196.462 65.409 197.17 65.3521C197.887 65.2869 198.477 65.1608 198.94 64.9736C199.404 64.7865 199.762 64.5179 200.015 64.168C200.267 63.818 200.45 63.3542 200.564 62.7764C200.678 62.1986 200.743 61.4906 200.759 60.6523C200.784 59.806 200.796 58.7969 200.796 57.625C200.796 56.4531 200.784 55.4481 200.759 54.6099C200.743 53.7635 200.678 53.0514 200.564 52.4736C200.45 51.8958 200.267 51.432 200.015 51.082C199.762 50.7321 199.404 50.4635 198.94 50.2764C198.485 50.0892 197.899 49.9671 197.183 49.9102C196.475 49.8451 195.6 49.8125 194.558 49.8125H187.502C186.461 49.8125 185.582 49.8451 184.866 49.9102C184.158 49.9671 183.572 50.0892 183.108 50.2764C182.644 50.4635 182.286 50.7321 182.034 51.082C181.781 51.432 181.598 51.8958 181.484 52.4736C181.37 53.0514 181.305 53.7635 181.289 54.6099C181.273 55.4481 181.265 56.4531 181.265 57.625C181.265 58.7969 181.273 59.806 181.289 60.6523C181.314 61.4906 181.383 62.1986 181.497 62.7764C181.611 63.3542 181.79 63.818 182.034 64.168C182.286 64.5179 182.644 64.7865 183.108 64.9736C183.572 65.1608 184.158 65.2869 184.866 65.3521C185.582 65.409 186.461 65.4375 187.502 65.4375H194.558ZM209.39 67H207.046V48.25H211.16L228.347 64.6562V48.25H230.691V67H227.566L209.39 50.2031V67Z" fill="white"/>
<path d="M85.8179 149.057V130.307H104.568V132.26H88.1617V138.51H103.787V140.463H88.1617V147.104H104.568V149.057H85.8179ZM110.037 149.057H107.693V130.307H111.807L128.994 146.713V130.307H131.338V149.057H128.213L110.037 132.26V149.057ZM156.362 136.166C156.362 135.19 156.257 134.417 156.045 133.847C155.833 133.277 155.483 132.846 154.995 132.553C154.507 132.26 153.864 132.073 153.066 131.991C152.269 131.91 151.284 131.869 150.112 131.869H143.838C142.796 131.869 141.917 131.902 141.201 131.967C140.493 132.024 139.907 132.146 139.443 132.333C138.98 132.52 138.621 132.789 138.369 133.139C138.117 133.489 137.934 133.953 137.82 134.531C137.706 135.108 137.641 135.82 137.625 136.667C137.608 137.505 137.6 138.51 137.6 139.682C137.6 140.854 137.608 141.863 137.625 142.709C137.649 143.547 137.718 144.255 137.832 144.833C137.946 145.411 138.125 145.875 138.369 146.225C138.621 146.575 138.98 146.843 139.443 147.031C139.907 147.218 140.493 147.344 141.201 147.409C141.917 147.466 142.796 147.494 143.838 147.494H150.125C151.036 147.494 151.821 147.47 152.48 147.421C153.14 147.372 153.701 147.283 154.165 147.153C154.629 147.022 155.003 146.843 155.288 146.615C155.573 146.388 155.793 146.103 155.947 145.761C156.11 145.411 156.22 144.996 156.277 144.516C156.334 144.028 156.362 143.458 156.362 142.807V141.635H146.963V139.682H158.706V142.807C158.706 143.588 158.657 144.296 158.56 144.931C158.462 145.558 158.287 146.119 158.035 146.615C157.791 147.104 157.461 147.527 157.046 147.885C156.631 148.243 156.106 148.54 155.471 148.776C154.836 149.004 154.08 149.171 153.201 149.277C152.322 149.391 151.296 149.448 150.125 149.448H143.838C142.406 149.448 141.197 149.358 140.212 149.179C139.236 149.008 138.43 148.748 137.795 148.398C137.161 148.04 136.668 147.592 136.318 147.055C135.977 146.518 135.724 145.887 135.562 145.163C135.407 144.439 135.317 143.621 135.293 142.709C135.269 141.798 135.256 140.789 135.256 139.682C135.256 138.575 135.269 137.566 135.293 136.655C135.317 135.743 135.407 134.925 135.562 134.201C135.724 133.477 135.977 132.846 136.318 132.309C136.668 131.772 137.161 131.328 137.795 130.978C138.43 130.62 139.236 130.356 140.212 130.185C141.197 130.006 142.406 129.916 143.838 129.916H150.112C151.284 129.916 152.31 129.973 153.189 130.087C154.067 130.193 154.824 130.36 155.459 130.588C156.094 130.807 156.619 131.088 157.034 131.43C157.457 131.772 157.791 132.175 158.035 132.638C158.287 133.102 158.462 133.627 158.56 134.213C158.657 134.799 158.706 135.45 158.706 136.166H156.362ZM162.625 130.307H164.968V149.057H162.625V130.307ZM172 149.057H169.656V130.307H173.77L190.957 146.713V130.307H193.301V149.057H190.176L172 132.26V149.057ZM198.001 149.057V130.307H216.751V132.26H200.344V138.51H215.969V140.463H200.344V147.104H216.751V149.057H198.001Z" fill="white"/>
</svg>
