<svg width="251" height="182" viewBox="0 0 251 182" fill="none" xmlns="http://www.w3.org/2000/svg">
<path d="M0 10C0 4.47716 4.47715 0 10 0H241C246.523 0 251 4.47715 251 10V136.365C251 140.794 248.087 144.696 243.84 145.954L128.34 180.168C126.487 180.718 124.513 180.718 122.66 180.168L7.15968 145.954C2.9132 144.696 0 140.794 0 136.365V10Z" fill="#00ADB5"/>
<path d="M0 10C0 4.47715 4.47715 0 10 0H241C246.523 0 251 4.47715 251 10V72.4038H0V10Z" fill="#393E46"/>
<rect y="62.75" width="251" height="19.3077" fill="#EEEEEE"/>
<path d="M51.294 39.8438H33.4815L30.669 45H27.3877L40.5127 22.5H44.2627L57.3877 45H54.1065L51.294 39.8438ZM49.8877 37.5L42.3877 24.375L34.8877 37.5H49.8877ZM87.4024 22.5V33.75C87.4024 35.0781 87.3828 36.2891 87.3438 37.3828C87.3145 38.4766 87.2022 39.458 87.0069 40.3271C86.8213 41.1963 86.5235 41.9531 86.1133 42.5977C85.7032 43.2422 85.1172 43.7793 84.3555 44.209C83.5938 44.6289 82.6221 44.9414 81.4405 45.1465C80.2686 45.3613 78.8233 45.4688 77.1045 45.4688H70.5127C68.794 45.4688 67.3438 45.3613 66.1621 45.1465C64.9903 44.9414 64.0235 44.6289 63.2617 44.209C62.5 43.7793 61.9092 43.2422 61.4893 42.5977C61.0791 41.9531 60.7764 41.1963 60.5811 40.3271C60.3955 39.458 60.2881 38.4766 60.2588 37.3828C60.2295 36.2891 60.2149 35.0781 60.2149 33.75V22.5H63.0274V33.75C63.0274 35.1562 63.0371 36.3672 63.0567 37.3828C63.086 38.3887 63.169 39.2383 63.3057 39.9316C63.4424 40.625 63.6573 41.1816 63.9502 41.6016C64.253 42.0215 64.6826 42.3438 65.2393 42.5684C65.7959 42.793 66.4991 42.9443 67.3487 43.0225C68.208 43.0908 69.2627 43.125 70.5127 43.125H77.1045C78.3448 43.125 79.3946 43.0908 80.2539 43.0225C81.1133 42.9443 81.8164 42.793 82.3633 42.5684C82.92 42.3438 83.3496 42.0215 83.6524 41.6016C83.9551 41.1816 84.1748 40.625 84.3116 39.9316C84.458 39.2383 84.541 38.3887 84.5606 37.3828C84.5801 36.3672 84.5899 35.1562 84.5899 33.75L84.5752 22.5H87.4024ZM115.527 29.5312C115.527 28.3594 115.4 27.4316 115.147 26.748C114.893 26.0645 114.473 25.5469 113.887 25.1953C113.301 24.8438 112.529 24.6191 111.572 24.5215C110.625 24.4238 109.448 24.375 108.042 24.375H101.465C100.215 24.375 99.1602 24.4141 98.3008 24.4922C97.4512 24.5605 96.7481 24.707 96.1914 24.9316C95.6348 25.1562 95.2051 25.4785 94.9024 25.8984C94.5996 26.3184 94.3799 26.875 94.2432 27.5684C94.1065 28.2617 94.0284 29.1162 94.0088 30.1318C93.9893 31.1377 93.9795 32.3438 93.9795 33.75C93.9795 35.1562 93.9893 36.3672 94.0088 37.3828C94.0381 38.3887 94.1211 39.2383 94.2578 39.9316C94.3946 40.625 94.6094 41.1816 94.9024 41.6016C95.2051 42.0215 95.6348 42.3438 96.1914 42.5684C96.7481 42.793 97.4512 42.9443 98.3008 43.0225C99.1602 43.0908 100.215 43.125 101.465 43.125H108.042C109.136 43.125 110.078 43.0957 110.869 43.0371C111.66 42.9785 112.334 42.8711 112.891 42.7148C113.447 42.5586 113.897 42.3438 114.238 42.0703C114.58 41.7969 114.844 41.4551 115.029 41.0449C115.225 40.625 115.356 40.127 115.425 39.5508C115.493 38.9648 115.527 38.2812 115.527 37.5H118.34C118.34 38.4375 118.281 39.2871 118.164 40.0488C118.047 40.8008 117.837 41.4746 117.534 42.0703C117.241 42.6562 116.846 43.1641 116.348 43.5938C115.85 44.0234 115.22 44.3799 114.458 44.6631C113.696 44.9365 112.788 45.1367 111.733 45.2637C110.679 45.4004 109.448 45.4688 108.042 45.4688H101.465C99.7461 45.4688 98.2959 45.3613 97.1143 45.1465C95.9424 44.9414 94.9756 44.6289 94.2139 44.209C93.4522 43.7793 92.8614 43.2422 92.4414 42.5977C92.0313 41.9531 91.7285 41.1963 91.5332 40.3271C91.3477 39.458 91.2403 38.4766 91.211 37.3828C91.1817 36.2891 91.167 35.0781 91.167 33.75C91.167 32.4219 91.1817 31.2109 91.211 30.1172C91.2403 29.0234 91.3477 28.042 91.5332 27.1729C91.7285 26.3037 92.0313 25.5469 92.4414 24.9023C92.8614 24.2578 93.4522 23.7256 94.2139 23.3057C94.9756 22.876 95.9424 22.5586 97.1143 22.3535C98.2959 22.1387 99.7461 22.0312 101.465 22.0312H108.042C109.448 22.0312 110.679 22.0996 111.733 22.2363C112.788 22.3633 113.696 22.5635 114.458 22.8369C115.22 23.1006 115.85 23.4375 116.348 23.8477C116.846 24.2578 117.241 24.7412 117.534 25.2979C117.837 25.8545 118.047 26.4844 118.164 27.1875C118.281 27.8906 118.34 28.6719 118.34 29.5312H115.527ZM147.417 22.5V24.8438H136.167V45H133.355V24.8438H122.105V22.5H147.417ZM152.105 22.5H154.917V45H152.105V22.5ZM178.369 22.0312C180.088 22.0312 181.533 22.1387 182.705 22.3535C183.887 22.5586 184.858 22.876 185.62 23.3057C186.382 23.7256 186.968 24.2578 187.378 24.9023C187.788 25.5469 188.086 26.3037 188.272 27.1729C188.467 28.042 188.579 29.0234 188.608 30.1172C188.647 31.2109 188.667 32.4219 188.667 33.75C188.667 35.0781 188.647 36.2891 188.608 37.3828C188.579 38.4766 188.467 39.458 188.272 40.3271C188.086 41.1963 187.788 41.9531 187.378 42.5977C186.968 43.2422 186.382 43.7793 185.62 44.209C184.858 44.6289 183.887 44.9414 182.705 45.1465C181.533 45.3613 180.088 45.4688 178.369 45.4688H169.902C168.184 45.4688 166.733 45.3613 165.552 45.1465C164.38 44.9414 163.413 44.6289 162.651 44.209C161.89 43.7793 161.299 43.2422 160.879 42.5977C160.469 41.9531 160.166 41.1963 159.971 40.3271C159.785 39.458 159.678 38.4766 159.648 37.3828C159.619 36.2891 159.605 35.0781 159.605 33.75C159.605 32.4219 159.619 31.2109 159.648 30.1172C159.678 29.0234 159.785 28.042 159.971 27.1729C160.166 26.3037 160.469 25.5469 160.879 24.9023C161.299 24.2578 161.89 23.7256 162.651 23.3057C163.413 22.876 164.38 22.5586 165.552 22.3535C166.733 22.1387 168.184 22.0312 169.902 22.0312H178.369ZM178.369 43.125C179.609 43.125 180.654 43.0908 181.504 43.0225C182.363 42.9443 183.071 42.793 183.628 42.5684C184.185 42.3438 184.614 42.0215 184.917 41.6016C185.22 41.1816 185.439 40.625 185.576 39.9316C185.713 39.2383 185.791 38.3887 185.811 37.3828C185.84 36.3672 185.855 35.1562 185.855 33.75C185.855 32.3438 185.84 31.1377 185.811 30.1318C185.791 29.1162 185.713 28.2617 185.576 27.5684C185.439 26.875 185.22 26.3184 184.917 25.8984C184.614 25.4785 184.185 25.1562 183.628 24.9316C183.081 24.707 182.378 24.5605 181.519 24.4922C180.669 24.4141 179.619 24.375 178.369 24.375H169.902C168.652 24.375 167.598 24.4141 166.738 24.4922C165.889 24.5605 165.186 24.707 164.629 24.9316C164.072 25.1562 163.643 25.4785 163.34 25.8984C163.037 26.3184 162.817 26.875 162.681 27.5684C162.544 28.2617 162.466 29.1162 162.446 30.1318C162.427 31.1377 162.417 32.3438 162.417 33.75C162.417 35.1562 162.427 36.3672 162.446 37.3828C162.476 38.3887 162.559 39.2383 162.695 39.9316C162.832 40.625 163.047 41.1816 163.34 41.6016C163.643 42.0215 164.072 42.3438 164.629 42.5684C165.186 42.793 165.889 42.9443 166.738 43.0225C167.598 43.0908 168.652 43.125 169.902 43.125H178.369ZM196.167 45H193.355V22.5H198.291L218.916 42.1875V22.5H221.729V45H217.979L196.167 24.8438V45Z" fill="white"/>
<path d="M47.8809 127.057V104.557H70.3809V106.901H50.6934V114.401H69.4434V116.744H50.6934V124.713H70.3809V127.057H47.8809ZM76.9434 127.057H74.1309V104.557H79.0674L99.6924 124.244V104.557H102.505V127.057H98.7549L76.9434 106.901V127.057ZM132.534 111.588C132.534 110.416 132.407 109.489 132.153 108.805C131.899 108.121 131.48 107.604 130.894 107.252C130.308 106.901 129.536 106.676 128.579 106.578C127.622 106.481 126.44 106.432 125.034 106.432H117.505C116.255 106.432 115.2 106.471 114.341 106.549C113.491 106.617 112.788 106.764 112.231 106.989C111.675 107.213 111.245 107.535 110.942 107.955C110.64 108.375 110.42 108.932 110.283 109.625C110.147 110.319 110.068 111.173 110.049 112.189C110.029 113.195 110.02 114.401 110.02 115.807C110.02 117.213 110.029 118.424 110.049 119.44C110.078 120.446 110.161 121.295 110.298 121.989C110.435 122.682 110.649 123.239 110.942 123.658C111.245 124.078 111.675 124.401 112.231 124.625C112.788 124.85 113.491 125.001 114.341 125.079C115.2 125.148 116.255 125.182 117.505 125.182H125.049C126.143 125.182 127.085 125.153 127.876 125.094C128.667 125.035 129.341 124.928 129.897 124.772C130.454 124.615 130.903 124.401 131.245 124.127C131.587 123.854 131.851 123.512 132.036 123.102C132.231 122.682 132.363 122.184 132.432 121.608C132.5 121.022 132.534 120.338 132.534 119.557V118.151H121.255V115.807H135.347V119.557C135.347 120.494 135.288 121.344 135.171 122.106C135.054 122.858 134.844 123.531 134.541 124.127C134.248 124.713 133.853 125.221 133.355 125.651C132.856 126.08 132.227 126.437 131.465 126.72C130.703 126.993 129.795 127.194 128.74 127.321C127.686 127.457 126.455 127.526 125.049 127.526H117.505C115.786 127.526 114.336 127.418 113.154 127.203C111.982 126.998 111.016 126.686 110.254 126.266C109.492 125.836 108.901 125.299 108.481 124.655C108.071 124.01 107.769 123.253 107.573 122.384C107.388 121.515 107.28 120.533 107.251 119.44C107.222 118.346 107.207 117.135 107.207 115.807C107.207 114.479 107.222 113.268 107.251 112.174C107.28 111.08 107.388 110.099 107.573 109.23C107.769 108.361 108.071 107.604 108.481 106.959C108.901 106.315 109.492 105.782 110.254 105.363C111.016 104.933 111.982 104.615 113.154 104.41C114.336 104.196 115.786 104.088 117.505 104.088H125.034C126.44 104.088 127.671 104.156 128.726 104.293C129.78 104.42 130.689 104.62 131.45 104.894C132.212 105.157 132.842 105.494 133.34 105.905C133.848 106.315 134.248 106.798 134.541 107.355C134.844 107.911 135.054 108.541 135.171 109.244C135.288 109.948 135.347 110.729 135.347 111.588H132.534ZM140.049 104.557H142.861V127.057H140.049V104.557ZM151.299 127.057H148.486V104.557H153.423L174.048 124.244V104.557H176.86V127.057H173.11L151.299 106.901V127.057ZM182.5 127.057V104.557H205V106.901H185.313V114.401H204.063V116.744H185.313V124.713H205V127.057H182.5Z" fill="white"/>
</svg>
