<svg viewBox="0 0 251 182" fill="none" xmlns="http://www.w3.org/2000/svg">
<path d="M0 10C0 4.47716 4.47715 0 10 0H241C246.523 0 251 4.47715 251 10V136.365C251 140.794 248.087 144.696 243.84 145.954L128.34 180.168C126.487 180.718 124.513 180.718 122.66 180.168L7.15968 145.954C2.9132 144.696 0 140.794 0 136.365V10Z" fill="#113089"/>
<path d="M0 10C0 4.47715 4.47715 0 10 0H241C246.523 0 251 4.47715 251 10V72.4038H0V10Z" fill="#393E46"/>
<rect y="62.75" width="251" height="19.3077" fill="#EEEEEE"/>
<path d="M78.7451 24.375V45H75.9326V22.5H80.6201L93.7305 42.1875L106.841 22.5H111.323V45H108.511V24.6826L95.1514 45H92.3096L78.7451 24.375ZM138.98 39.8438H121.167L118.355 45H115.073L128.198 22.5H131.948L145.073 45H141.792L138.98 39.8438ZM137.573 37.5L130.073 24.375L122.573 37.5H137.573ZM163.721 33.1348L176.948 45H172.964L161.758 34.9512L150.933 45H146.948L159.736 33.1348L147.886 22.5H151.87L161.685 31.3184L171.191 22.5H175.176L163.721 33.1348Z" fill="white"/>
<path d="M87.9883 121.901H70.1758L67.3633 127.057H64.0821L77.2071 104.557H80.9571L94.0821 127.057H90.8008L87.9883 121.901ZM86.5821 119.557L79.0821 106.432L71.5821 119.557H86.5821ZM124.097 104.557V115.807C124.097 117.135 124.077 118.346 124.038 119.44C124.009 120.533 123.897 121.515 123.701 122.384C123.516 123.253 123.218 124.01 122.808 124.655C122.397 125.299 121.812 125.836 121.05 126.266C120.288 126.686 119.316 126.998 118.135 127.203C116.963 127.418 115.518 127.526 113.799 127.526H107.207C105.488 127.526 104.038 127.418 102.856 127.203C101.685 126.998 100.718 126.686 99.9561 126.266C99.1944 125.836 98.6035 125.299 98.1836 124.655C97.7735 124.01 97.4707 123.253 97.2754 122.384C97.0899 121.515 96.9825 120.533 96.9532 119.44C96.9239 118.346 96.9092 117.135 96.9092 115.807V104.557H99.7217V115.807C99.7217 117.213 99.7315 118.424 99.751 119.44C99.7803 120.446 99.8633 121.295 100 121.989C100.137 122.682 100.352 123.239 100.645 123.658C100.947 124.078 101.377 124.401 101.934 124.625C102.49 124.85 103.193 125.001 104.043 125.079C104.902 125.148 105.957 125.182 107.207 125.182H113.799C115.039 125.182 116.089 125.148 116.948 125.079C117.808 125.001 118.511 124.85 119.058 124.625C119.614 124.401 120.044 124.078 120.347 123.658C120.649 123.239 120.869 122.682 121.006 121.989C121.152 121.295 121.235 120.446 121.255 119.44C121.274 118.424 121.284 117.213 121.284 115.807L121.27 104.557H124.097ZM153.174 104.557V106.901H141.924V127.057H139.111V106.901H127.861V104.557H153.174ZM175.689 104.088C177.407 104.088 178.853 104.196 180.024 104.41C181.206 104.615 182.178 104.933 182.939 105.363C183.701 105.782 184.287 106.315 184.697 106.959C185.107 107.604 185.405 108.361 185.591 109.23C185.786 110.099 185.898 111.08 185.928 112.174C185.967 113.268 185.986 114.479 185.986 115.807C185.986 117.135 185.967 118.346 185.928 119.44C185.898 120.533 185.786 121.515 185.591 122.384C185.405 123.253 185.107 124.01 184.697 124.655C184.287 125.299 183.701 125.836 182.939 126.266C182.178 126.686 181.206 126.998 180.024 127.203C178.853 127.418 177.407 127.526 175.689 127.526H167.222C165.503 127.526 164.053 127.418 162.871 127.203C161.699 126.998 160.732 126.686 159.971 126.266C159.209 125.836 158.618 125.299 158.198 124.655C157.788 124.01 157.485 123.253 157.29 122.384C157.105 121.515 156.997 120.533 156.968 119.44C156.939 118.346 156.924 117.135 156.924 115.807C156.924 114.479 156.939 113.268 156.968 112.174C156.997 111.08 157.105 110.099 157.29 109.23C157.485 108.361 157.788 107.604 158.198 106.959C158.618 106.315 159.209 105.782 159.971 105.363C160.732 104.933 161.699 104.615 162.871 104.41C164.053 104.196 165.503 104.088 167.222 104.088H175.689ZM175.689 125.182C176.929 125.182 177.974 125.148 178.823 125.079C179.683 125.001 180.391 124.85 180.947 124.625C181.504 124.401 181.934 124.078 182.236 123.658C182.539 123.239 182.759 122.682 182.896 121.989C183.032 121.295 183.11 120.446 183.13 119.44C183.159 118.424 183.174 117.213 183.174 115.807C183.174 114.401 183.159 113.195 183.13 112.189C183.11 111.173 183.032 110.319 182.896 109.625C182.759 108.932 182.539 108.375 182.236 107.955C181.934 107.535 181.504 107.213 180.947 106.989C180.4 106.764 179.697 106.617 178.838 106.549C177.988 106.471 176.939 106.432 175.689 106.432H167.222C165.972 106.432 164.917 106.471 164.058 106.549C163.208 106.617 162.505 106.764 161.948 106.989C161.392 107.213 160.962 107.535 160.659 107.955C160.356 108.375 160.137 108.932 160 109.625C159.863 110.319 159.785 111.173 159.766 112.189C159.746 113.195 159.736 114.401 159.736 115.807C159.736 117.213 159.746 118.424 159.766 119.44C159.795 120.446 159.878 121.295 160.015 121.989C160.151 122.682 160.366 123.239 160.659 123.658C160.962 124.078 161.392 124.401 161.948 124.625C162.505 124.85 163.208 125.001 164.058 125.079C164.917 125.148 165.972 125.182 167.222 125.182H175.689Z" fill="white"/>
</svg>
